<svg xmlns="http://www.w3.org/2000/svg" width="12.75" height="13.125" viewBox="0 0 12.75 13.125"><defs><style>.cls-1{fill:#fff;fill-rule:evenodd}</style></defs><path id="_" data-name="ï¡" class="cls-1" d="M1517.42 30.518a.609.609 0 0 0-.5-.22.734.734 0 0 0-.5.22l-3.37 3.516v-8.408a.692.692 0 0 0-.7-.7h-.94a.68.68 0 0 0-.5.205.7.7 0 0 0-.2.5v8.408l-3.37-3.516a.734.734 0 0 0-.5-.22.6.6 0 0 0-.5.22l-.64.645a.7.7 0 0 0 0 1l5.68 5.684a.68.68 0 0 0 .5.205.7.7 0 0 0 .5-.205l5.68-5.684a.7.7 0 0 0 0-1z" transform="translate(-1505.5 -24.938)"/></svg>