<svg xmlns="http://www.w3.org/2000/svg" width="21" height="20.44" viewBox="0 0 21 20.44"><defs><style>.cls-1{fill:#2b2b2b;fill-rule:evenodd}</style></defs><path id="_" data-name="ï¡" class="cls-1" d="M671.047 2412.14a.961.961 0 0 1 .351.8 1.14 1.14 0 0 1-.351.79l-5.625 5.4h13.453a1.073 1.073 0 0 1 .8.32 1.1 1.1 0 0 1 .328.8v1.5a1.1 1.1 0 0 1-.328.8 1.082 1.082 0 0 1-.8.33h-13.453l5.625 5.39a1.14 1.14 0 0 1 .351.79.95.95 0 0 1-.351.8l-1.031 1.03a1.127 1.127 0 0 1-1.594 0l-9.094-9.09a1.14 1.14 0 0 1 0-1.6l9.094-9.09a1.127 1.127 0 0 1 1.594 0z" transform="translate(-659 -2410.78)"/></svg>