<svg xmlns="http://www.w3.org/2000/svg" width="11.375" height="11.063" viewBox="0 0 11.375 11.063"><defs><style>.cls-1{fill:#757987;fill-rule:evenodd}</style></defs><path id="_" data-name="ï¡" class="cls-1" d="M528.708 234.736a.52.52 0 0 0-.19.432.637.637 0 0 0 .19.432l3.047 2.919h-7.287a.608.608 0 0 0-.609.61v.812a.608.608 0 0 0 .609.61h7.287l-3.047 2.92a.633.633 0 0 0-.19.431.519.519 0 0 0 .19.432l.559.558a.612.612 0 0 0 .863 0l4.926-4.925a.613.613 0 0 0 0-.864l-4.926-4.925a.612.612 0 0 0-.863 0z" transform="translate(-523.844 -234)"/></svg>